# Blender v2.76 (sub 0) OBJ File: ''
# www.blender.org
mtllib joint.mtl
o Joint
v -0.100000 0.100000 -0.100000
v 0.100000 0.100000 -0.100000
v 0.100000 0.100000 0.100000
v 0.100000 0.100000 2.100000
v 0.100000 -0.100000 2.100000
v -0.400000 0.100000 1.900000
v -0.400000 -0.100000 1.900000
v -0.100000 0.100000 2.100000
v -0.100000 -0.100000 2.100000
v -0.400000 -0.100000 1.700000
v -0.400000 0.100000 1.700000
v -0.100001 -0.100000 2.300000
v -0.100001 0.100000 2.300000
v 0.099999 -0.100000 2.300000
v 0.099999 0.100000 2.300000
v 0.400000 0.100000 1.700000
v 0.400000 -0.100000 1.700000
v 0.400000 -0.100000 1.900000
v 0.400000 0.100000 1.900000
v -0.100000 0.100000 0.100000
v -0.100000 -0.100000 -0.100000
v 2.100000 0.100000 -0.099999
v 2.100000 -0.100000 -0.099999
v 1.900000 0.100000 0.400001
v 1.900000 -0.100000 0.400001
v 2.100000 0.100000 0.100001
v 2.100000 -0.100000 0.100001
v 1.700000 -0.100000 0.400001
v 1.700000 0.100000 0.400001
v 2.300000 -0.100000 0.100001
v 2.300000 0.100000 0.100001
v 2.300000 -0.100000 -0.099999
v 2.300000 0.100000 -0.099999
v 1.700000 0.100000 -0.399999
v 1.700000 -0.100000 -0.399999
v 1.900000 -0.100000 -0.399999
v 1.900000 0.100000 -0.399999
v -0.100000 -0.100000 0.100000
v 0.100000 -0.100000 0.100000
v 0.100000 -0.100000 -0.100000
v 0.100000 2.100000 -0.100000
v 0.100000 2.100000 0.100000
v -0.400000 1.900000 -0.100000
v -0.400000 1.900000 0.100000
v -0.100000 2.100000 -0.100000
v -0.100000 2.100000 0.100000
v -0.400000 1.700000 0.100000
v -0.400000 1.700000 -0.100000
v -0.100000 2.300000 0.100000
v -0.100000 2.300000 -0.100000
v 0.100000 2.300000 0.100000
v 0.100000 2.300000 -0.100000
v 0.400000 1.700000 -0.100000
v 0.400000 1.700000 0.100000
v 0.400000 1.900000 0.100000
v 0.400000 1.900000 -0.100000
vt 0.755782 0.750947
vt 0.277299 0.744663
vt 0.250231 0.270956
vt 0.730860 0.227905
vt 0.733390 0.225976
vt 0.734925 0.228763
vt 0.732703 0.229232
vt 0.729771 0.230367
vt 0.732233 0.231455
vt 0.734925 0.231455
vt 0.755429 0.751300
vt 0.755429 0.750594
vt 0.756136 0.750594
vt 0.756136 0.751300
vt 0.278044 0.743918
vt 0.278044 0.745408
vt 0.276554 0.745408
vt 0.276554 0.743918
vt 0.250434 0.270752
vt 0.250434 0.271159
vt 0.250027 0.271159
vt 0.250027 0.270752
vn -0.800000 0.000000 0.600000
vn -1.000000 0.000000 -0.000000
vn 0.000000 1.000000 0.000000
vn 0.000000 0.000000 1.000000
vn 0.800000 0.000000 -0.600000
vn 0.000000 -1.000000 0.000000
vn 1.000000 0.000000 0.000000
vn 0.800000 0.000000 0.600000
vn -0.800000 0.000000 -0.600000
vn 0.600000 0.000000 0.800000
vn -0.600000 0.000000 -0.800000
vn 0.000000 0.000000 -1.000000
vn 0.600000 0.000000 -0.800000
vn -0.600000 0.000000 0.800000
vn -0.800000 0.600000 -0.000000
vn 0.800000 -0.600000 0.000000
vn 0.800000 0.600000 0.000000
vn -0.800000 -0.600000 -0.000000
usemtl joint
s off
f 12/1/1 13/1/1 6/1/1 7/1/1
f 11/1/2 10/1/2 7/1/2 6/1/2
f 4/1/3 8/1/3 13/1/3 15/1/3
f 15/1/4 13/1/4 12/1/4 14/1/4
f 8/1/5 9/1/5 10/1/5 11/1/5
f 4/1/3 15/1/3 19/1/3 16/1/3
f 13/1/3 8/1/3 11/1/3 6/1/3
f 9/1/6 12/1/6 7/1/6 10/1/6
f 9/1/6 5/1/6 14/1/6 12/1/6
f 17/1/7 16/1/7 19/1/7 18/1/7
f 15/1/8 14/1/8 18/1/8 19/1/8
f 14/1/6 5/1/6 17/1/6 18/1/6
f 5/1/9 4/1/9 16/1/9 17/1/9
f 30/2/10 31/2/10 24/2/10 25/2/10
f 29/2/4 28/2/4 25/2/4 24/2/4
f 22/2/3 26/2/3 31/2/3 33/2/3
f 33/2/7 31/2/7 30/2/7 32/2/7
f 26/2/11 27/2/11 28/2/11 29/2/11
f 22/2/3 33/2/3 37/2/3 34/2/3
f 31/2/3 26/2/3 29/2/3 24/2/3
f 27/2/6 30/2/6 25/2/6 28/2/6
f 27/2/6 23/2/6 32/2/6 30/2/6
f 35/2/12 34/2/12 37/2/12 36/2/12
f 33/2/13 32/2/13 36/2/13 37/2/13
f 32/2/6 23/2/6 35/2/6 36/2/6
f 23/2/14 22/2/14 34/2/14 35/2/14
f 49/3/15 50/3/15 43/3/15 44/3/15
f 48/3/2 47/3/2 44/3/2 43/3/2
f 41/3/12 45/3/12 50/3/12 52/3/12
f 52/3/3 50/3/3 49/3/3 51/3/3
f 45/3/16 46/3/16 47/3/16 48/3/16
f 41/3/12 52/3/12 56/3/12 53/3/12
f 50/3/12 45/3/12 48/3/12 43/3/12
f 46/3/4 49/3/4 44/3/4 47/3/4
f 46/3/4 42/3/4 51/3/4 49/3/4
f 54/3/7 53/3/7 56/3/7 55/3/7
f 52/3/17 51/3/17 55/3/17 56/3/17
f 51/3/4 42/3/4 54/3/4 55/3/4
f 42/3/18 41/3/18 53/3/18 54/3/18
f 1/4/12 2/5/12 40/6/12 21/7/12
f 20/8/2 1/4/2 21/7/2 38/9/2
f 21/7/6 40/6/6 39/10/6 38/9/6
f 38/11/6 39/12/6 5/1/6 9/1/6
f 39/12/7 3/13/7 4/1/7 5/1/7
f 3/13/3 20/14/3 8/1/3 4/1/3
f 20/14/2 38/11/2 9/1/2 8/1/2
f 39/15/6 40/16/6 23/2/6 27/2/6
f 40/16/12 2/17/12 22/2/12 23/2/12
f 2/17/3 3/18/3 26/2/3 22/2/3
f 3/18/4 39/15/4 27/2/4 26/2/4
f 20/19/4 3/20/4 42/3/4 46/3/4
f 3/20/7 2/21/7 41/3/7 42/3/7
f 2/21/12 1/22/12 45/3/12 41/3/12
f 1/22/2 20/19/2 46/3/2 45/3/2
