ply
format ascii 1.0
comment Created by Blender 2.78 (sub 0) - www.blender.org, source file: ''
element vertex 40
property float x
property float y
property float z
property float nx
property float ny
property float nz
property float s
property float t
property uchar red
property uchar green
property uchar blue
element face 10
property list uchar uint vertex_indices
end_header
-0.200000 -0.200000 4.100000 -1.000000 0.000000 0.000000 0.118009 0.059219 0 0 255
-0.200000 0.200000 4.100000 -1.000000 0.000000 0.000000 0.059219 0.059219 0 0 255
-0.200000 0.200000 0.900000 -1.000000 0.000000 0.000000 0.059219 0.999857 0 0 255
-0.200000 -0.200000 0.900000 -1.000000 0.000000 0.000000 0.118009 0.999857 0 0 255
2.100000 -0.200000 0.200001 -0.000000 -0.000000 1.000000 0.118296 0.471035 255 0 0
2.100000 0.200000 0.200001 -0.000000 -0.000000 1.000000 0.118296 0.412245 255 0 0
0.900000 0.200000 0.200000 -0.000000 -0.000000 1.000000 0.471035 0.412245 255 0 0
0.900000 -0.200000 0.200000 -0.000000 -0.000000 1.000000 0.471035 0.471035 255 0 0
0.200000 -0.200000 0.900000 1.000000 0.000000 0.000000 0.000143 0.058933 0 0 255
0.200000 0.200000 0.900000 1.000000 0.000000 0.000000 0.000143 0.000143 0 0 255
0.200000 0.200000 4.100000 1.000000 0.000000 0.000000 0.940781 0.000143 0 0 255
0.200000 -0.200000 4.100000 1.000000 0.000000 0.000000 0.940781 0.058933 0 0 255
-0.200000 0.200000 4.100000 0.000000 0.000000 1.000000 0.059219 0.059219 0 0 255
-0.200000 -0.200000 4.100000 0.000000 0.000000 1.000000 0.118009 0.059219 0 0 255
0.200000 -0.200000 4.100000 0.000000 0.000000 1.000000 0.118009 0.118009 0 0 255
0.200000 0.200000 4.100000 0.000000 0.000000 1.000000 0.059219 0.118009 0 0 255
0.200000 -0.200000 4.100000 0.000000 -1.000000 -0.000000 0.000143 0.999857 0 0 255
-0.200000 -0.200000 4.100000 0.000000 -1.000000 -0.000000 0.058933 0.999857 0 0 255
-0.200000 -0.200000 0.900000 0.000000 -1.000000 -0.000000 0.058933 0.059219 0 0 255
0.200000 -0.200000 0.900000 0.000000 -1.000000 -0.000000 0.000143 0.059219 0 0 255
0.200000 0.200000 0.900000 0.000000 1.000000 0.000000 0.941067 0.000143 0 0 255
-0.200000 0.200000 0.900000 0.000000 1.000000 0.000000 0.999857 0.000143 0 0 255
-0.200000 0.200000 4.100000 0.000000 1.000000 0.000000 0.999857 0.940781 0 0 255
0.200000 0.200000 4.100000 0.000000 1.000000 0.000000 0.941067 0.940781 0 0 255
0.900000 -0.200000 -0.200000 0.000000 0.000000 -1.000000 0.236162 0.059219 255 0 0
0.900000 0.200000 -0.200000 0.000000 0.000000 -1.000000 0.177372 0.059219 255 0 0
2.100000 0.200000 -0.200000 0.000000 0.000000 -1.000000 0.177372 0.411958 255 0 0
2.100000 -0.200000 -0.200000 0.000000 0.000000 -1.000000 0.236162 0.411958 255 0 0
2.100000 -0.200000 -0.200000 1.000000 0.000000 0.000000 0.236448 0.118009 255 0 0
2.100000 0.200000 -0.200000 1.000000 0.000000 0.000000 0.236448 0.059219 255 0 0
2.100000 0.200000 0.200001 1.000000 0.000000 0.000000 0.295238 0.059219 255 0 0
2.100000 -0.200000 0.200001 1.000000 0.000000 0.000000 0.295238 0.118009 255 0 0
0.900000 -0.200000 0.200000 0.000000 -1.000000 -0.000000 0.177085 0.059219 255 0 0
0.900000 -0.200000 -0.200000 0.000000 -1.000000 -0.000000 0.118296 0.059219 255 0 0
2.100000 -0.200000 -0.200000 0.000000 -1.000000 -0.000000 0.118296 0.411958 255 0 0
2.100000 -0.200000 0.200001 0.000000 -1.000000 -0.000000 0.177085 0.411958 255 0 0
0.900000 0.200000 -0.200000 -0.000000 1.000000 0.000000 0.177372 0.059219 255 0 0
0.900000 0.200000 0.200000 -0.000000 1.000000 0.000000 0.236162 0.059219 255 0 0
2.100000 0.200000 0.200001 -0.000000 1.000000 0.000000 0.236162 0.411958 255 0 0
2.100000 0.200000 -0.200000 -0.000000 1.000000 0.000000 0.177372 0.411958 255 0 0
4 0 1 2 3
4 4 5 6 7
4 8 9 10 11
4 12 13 14 15
4 16 17 18 19
4 20 21 22 23
4 24 25 26 27
4 28 29 30 31
4 32 33 34 35
4 36 37 38 39
