ply
format ascii 1.0
comment Created by Blender 2.76 (sub 0) - www.blender.org, source file: 'joint.blend'
element vertex 308
property float x
property float y
property float z
property float nx
property float ny
property float nz
property uchar red
property uchar green
property uchar blue
element face 118
property list uchar uint vertex_indices
end_header
3.000000 -0.200000 -0.000000 0.181700 -0.908501 0.376313 255 0 0
4.000000 0.000000 0.000000 0.181700 -0.908501 0.376313 255 0 0
3.000000 -0.141421 0.141421 0.181700 -0.908501 0.376313 255 0 0
3.000000 0.000000 0.200000 0.181700 0.376313 0.908501 255 0 0
4.000000 0.000000 0.000000 0.181700 0.376313 0.908501 255 0 0
3.000000 0.141422 0.141421 0.181700 0.376313 0.908501 255 0 0
3.000000 -0.141421 -0.141421 0.181700 -0.908500 -0.376314 255 0 0
4.000000 0.000000 0.000000 0.181700 -0.908500 -0.376314 255 0 0
3.000000 -0.200000 -0.000000 0.181700 -0.908500 -0.376314 255 0 0
3.000000 0.000000 -0.200000 0.181700 -0.376313 -0.908501 255 0 0
4.000000 0.000000 0.000000 0.181700 -0.376313 -0.908501 255 0 0
3.000000 -0.141421 -0.141421 0.181700 -0.376313 -0.908501 255 0 0
3.000000 0.141422 -0.141421 0.181700 0.376313 -0.908501 255 0 0
4.000000 0.000000 0.000000 0.181700 0.376313 -0.908501 255 0 0
3.000000 0.000000 -0.200000 0.181700 0.376313 -0.908501 255 0 0
3.000000 0.200000 -0.000000 0.181700 0.908501 -0.376313 255 0 0
4.000000 0.000000 0.000000 0.181700 0.908501 -0.376313 255 0 0
3.000000 0.141422 -0.141421 0.181700 0.908501 -0.376313 255 0 0
3.000000 -0.141421 0.141421 0.181700 -0.376314 0.908500 255 0 0
4.000000 0.000000 0.000000 0.181700 -0.376314 0.908500 255 0 0
3.000000 0.000000 0.200000 0.181700 -0.376314 0.908500 255 0 0
3.000000 0.141422 0.141421 0.181700 0.908501 0.376313 255 0 0
4.000000 0.000000 0.000000 0.181700 0.908501 0.376313 255 0 0
3.000000 0.200000 -0.000000 0.181700 0.908501 0.376313 255 0 0
3.000000 0.000000 -0.200000 0.000000 0.382683 -0.923880 255 0 0
0.200000 0.000000 -0.200000 0.000000 0.382683 -0.923880 255 0 0
0.200000 0.141421 -0.141422 0.000000 0.382683 -0.923880 255 0 0
3.000000 -0.141421 0.141421 0.000000 -0.923880 0.382684 255 0 0
0.200000 -0.141421 0.141421 0.000000 -0.923880 0.382684 255 0 0
0.200000 -0.200000 -0.000000 0.000000 -0.923880 0.382684 255 0 0
3.000000 -0.141421 -0.141421 0.000000 -0.923879 -0.382684 255 0 0
3.000000 -0.200000 -0.000000 0.000000 -0.923879 -0.382684 255 0 0
0.200000 -0.200000 -0.000000 0.000000 -0.923879 -0.382684 255 0 0
3.000000 -0.141421 -0.141421 0.000000 -0.382683 -0.923880 255 0 0
0.200000 -0.141421 -0.141422 0.000000 -0.382683 -0.923880 255 0 0
0.200000 0.000000 -0.200000 0.000000 -0.382683 -0.923880 255 0 0
0.200000 3.000000 0.000001 0.908500 0.181700 0.376315 0 255 0
-0.000001 4.000000 0.000001 0.908500 0.181700 0.376315 0 255 0
0.141421 3.000000 0.141422 0.908500 0.181700 0.376315 0 255 0
-0.000000 3.000000 0.200001 -0.376314 0.181700 0.908500 0 255 0
-0.000001 4.000000 0.000001 -0.376314 0.181700 0.908500 0 255 0
-0.141422 3.000000 0.141422 -0.376314 0.181700 0.908500 0 255 0
0.141421 3.000000 -0.141421 0.908500 0.181701 -0.376315 0 255 0
-0.000001 4.000000 0.000001 0.908500 0.181701 -0.376315 0 255 0
0.200000 3.000000 0.000001 0.908500 0.181701 -0.376315 0 255 0
-0.000000 3.000000 -0.199999 0.376314 0.181700 -0.908500 0 255 0
-0.000001 4.000000 0.000001 0.376314 0.181700 -0.908500 0 255 0
0.141421 3.000000 -0.141421 0.376314 0.181700 -0.908500 0 255 0
-0.141422 3.000000 -0.141421 -0.376313 0.181700 -0.908501 0 255 0
-0.000001 4.000000 0.000001 -0.376313 0.181700 -0.908501 0 255 0
-0.000000 3.000000 -0.199999 -0.376313 0.181700 -0.908501 0 255 0
-0.200000 3.000000 0.000001 -0.908501 0.181700 -0.376313 0 255 0
-0.000001 4.000000 0.000001 -0.908501 0.181700 -0.376313 0 255 0
-0.141422 3.000000 -0.141421 -0.908501 0.181700 -0.376313 0 255 0
0.141421 3.000000 0.141422 0.376314 0.181700 0.908500 0 255 0
-0.000001 4.000000 0.000001 0.376314 0.181700 0.908500 0 255 0
-0.000000 3.000000 0.200001 0.376314 0.181700 0.908500 0 255 0
-0.141422 3.000000 0.141422 -0.908501 0.181700 0.376313 0 255 0
-0.000001 4.000000 0.000001 -0.908501 0.181700 0.376313 0 255 0
-0.200000 3.000000 0.000001 -0.908501 0.181700 0.376313 0 255 0
-0.141422 3.000000 0.141422 -0.382684 -0.000000 0.923879 0 255 0
-0.141422 0.200000 0.141421 -0.382684 -0.000000 0.923879 0 255 0
-0.000000 0.200000 0.200000 -0.382684 -0.000000 0.923879 0 255 0
-0.141422 3.000000 -0.141421 -0.382683 0.000000 -0.923880 0 255 0
-0.000000 3.000000 -0.199999 -0.382683 0.000000 -0.923880 0 255 0
-0.000000 0.200000 -0.200000 -0.382683 0.000000 -0.923880 0 255 0
-0.141422 3.000000 -0.141421 -0.923879 0.000000 -0.382684 0 255 0
-0.141422 0.200000 -0.141421 -0.923879 0.000000 -0.382684 0 255 0
-0.200001 0.200000 -0.000000 -0.923879 0.000000 -0.382684 0 255 0
0.200000 3.000000 0.000001 0.923879 -0.000000 0.382685 0 255 0
0.141421 3.000000 0.141422 0.923879 -0.000000 0.382685 0 255 0
0.141421 0.200000 0.141421 0.923879 -0.000000 0.382685 0 255 0
-0.141422 3.000000 0.141422 -0.923880 0.000000 0.382683 0 255 0
-0.200000 3.000000 0.000001 -0.923880 0.000000 0.382683 0 255 0
-0.200001 0.200000 -0.000000 -0.923880 0.000000 0.382683 0 255 0
0.200000 3.000000 0.000001 0.923880 -0.000000 -0.382683 0 255 0
0.200000 0.200000 -0.000000 0.923880 -0.000000 -0.382683 0 255 0
0.141421 0.200000 -0.141421 0.923880 -0.000000 -0.382683 0 255 0
0.141421 3.000000 -0.141421 0.382684 0.000000 -0.923879 0 255 0
0.141421 0.200000 -0.141421 0.382684 0.000000 -0.923879 0 255 0
-0.000000 0.200000 -0.200000 0.382684 0.000000 -0.923879 0 255 0
-0.000000 3.000000 0.200001 0.382684 -0.000000 0.923879 0 255 0
-0.000000 0.200000 0.200000 0.382684 -0.000000 0.923879 0 255 0
0.141421 0.200000 0.141421 0.382684 -0.000000 0.923879 0 255 0
0.200000 -0.000000 3.000000 0.908500 -0.376315 0.181700 0 0 255
0.000000 -0.000001 4.000000 0.908500 -0.376315 0.181700 0 0 255
0.141421 -0.141422 3.000000 0.908500 -0.376315 0.181700 0 0 255
0.000000 -0.200001 3.000000 -0.376314 -0.908500 0.181700 0 0 255
0.000000 -0.000001 4.000000 -0.376314 -0.908500 0.181700 0 0 255
-0.141421 -0.141422 3.000000 -0.376314 -0.908500 0.181700 0 0 255
0.141421 0.141421 3.000000 0.908500 0.376315 0.181700 0 0 255
0.000000 -0.000001 4.000000 0.908500 0.376315 0.181700 0 0 255
0.200000 -0.000000 3.000000 0.908500 0.376315 0.181700 0 0 255
-0.000000 0.200000 3.000000 0.376314 0.908500 0.181700 0 0 255
0.000000 -0.000001 4.000000 0.376314 0.908500 0.181700 0 0 255
0.141421 0.141421 3.000000 0.376314 0.908500 0.181700 0 0 255
-0.141421 0.141421 3.000000 -0.376314 0.908500 0.181700 0 0 255
0.000000 -0.000001 4.000000 -0.376314 0.908500 0.181700 0 0 255
-0.000000 0.200000 3.000000 -0.376314 0.908500 0.181700 0 0 255
-0.200000 -0.000000 3.000000 -0.908501 0.376313 0.181700 0 0 255
0.000000 -0.000001 4.000000 -0.908501 0.376313 0.181700 0 0 255
-0.141421 0.141421 3.000000 -0.908501 0.376313 0.181700 0 0 255
0.141421 -0.141422 3.000000 0.376314 -0.908500 0.181700 0 0 255
0.000000 -0.000001 4.000000 0.376314 -0.908500 0.181700 0 0 255
0.000000 -0.200001 3.000000 0.376314 -0.908500 0.181700 0 0 255
-0.141421 -0.141422 3.000000 -0.908501 -0.376313 0.181700 0 0 255
0.000000 -0.000001 4.000000 -0.908501 -0.376313 0.181700 0 0 255
-0.200000 -0.000000 3.000000 -0.908501 -0.376313 0.181700 0 0 255
-0.141421 -0.141422 3.000000 -0.382684 -0.923879 -0.000000 0 0 255
-0.141421 -0.141421 0.200000 -0.382684 -0.923879 -0.000000 0 0 255
0.000000 -0.200000 0.200000 -0.382684 -0.923879 -0.000000 0 0 255
-0.141421 0.141421 3.000000 -0.923879 0.382684 0.000000 0 0 255
-0.141422 0.141421 0.200000 -0.923879 0.382684 0.000000 0 0 255
-0.200000 0.000000 0.200000 -0.923879 0.382684 0.000000 0 0 255
0.200000 -0.000000 3.000000 0.923879 -0.382685 -0.000000 0 0 255
0.141421 -0.141422 3.000000 0.923879 -0.382685 -0.000000 0 0 255
0.141421 -0.141421 0.200000 0.923879 -0.382685 -0.000000 0 0 255
-0.200000 -0.000000 3.000000 -0.923879 -0.382685 0.000000 0 0 255
-0.200000 0.000000 0.200000 -0.923879 -0.382685 0.000000 0 0 255
-0.141421 -0.141421 0.200000 -0.923879 -0.382685 0.000000 0 0 255
0.200000 -0.000000 3.000000 0.923880 0.382683 -0.000000 0 0 255
0.200000 0.000000 0.200000 0.923880 0.382683 -0.000000 0 0 255
0.141421 0.141421 0.200000 0.923880 0.382683 -0.000000 0 0 255
0.000000 -0.200001 3.000000 0.382684 -0.923879 -0.000000 0 0 255
0.000000 -0.200000 0.200000 0.382684 -0.923879 -0.000000 0 0 255
0.141421 -0.141421 0.200000 0.382684 -0.923879 -0.000000 0 0 255
0.200000 0.141421 0.141421 0.678600 0.281084 0.678597 255 255 255
0.141421 0.141421 0.200000 0.678600 0.281084 0.678597 255 255 255
0.200000 0.000000 0.200000 0.678600 0.281084 0.678597 255 255 255
0.200000 0.141421 0.141421 0.577350 0.577351 0.577349 255 255 255
0.141421 0.200000 0.141421 0.577350 0.577351 0.577349 255 255 255
0.141421 0.141421 0.200000 0.577350 0.577351 0.577349 255 255 255
-0.141422 0.200000 0.141421 -0.281085 0.678599 0.678598 255 255 255
-0.141422 0.141421 0.200000 -0.281085 0.678599 0.678598 255 255 255
-0.000000 0.200000 0.200000 -0.281085 0.678599 0.678598 255 255 255
0.141421 -0.141421 0.200000 0.678601 -0.281084 0.678596 255 255 255
0.200000 -0.141421 0.141421 0.678601 -0.281084 0.678596 255 255 255
0.200000 0.000000 0.200000 0.678601 -0.281084 0.678596 255 255 255
-0.141421 -0.141421 0.200000 -0.382684 -0.923879 -0.000000 255 255 255
-0.141421 -0.141421 0.141421 -0.382684 -0.923879 -0.000000 255 255 255
0.000000 -0.200000 0.141421 -0.382684 -0.923879 -0.000000 255 255 255
0.000000 -0.200000 -0.000000 -0.382684 -0.923879 -0.000000 255 255 255
0.000000 -0.200000 -0.141422 -0.382684 -0.923879 -0.000000 255 255 255
-0.141421 -0.141421 -0.000000 -0.382684 -0.923879 -0.000000 255 255 255
-0.200000 0.000000 0.141421 -0.923879 -0.382685 -0.000000 255 255 255
-0.141421 -0.141421 0.141421 -0.923879 -0.382685 -0.000000 255 255 255
-0.141421 -0.141421 0.200000 -0.923879 -0.382685 -0.000000 255 255 255
-0.200000 0.000000 -0.000000 -0.923879 -0.382685 -0.000000 255 255 255
-0.141421 -0.141421 -0.000000 -0.923879 -0.382685 -0.000000 255 255 255
-0.200000 0.000000 -0.141422 -0.923879 -0.382685 -0.000000 255 255 255
0.000000 -0.200000 0.200000 0.382684 -0.923879 -0.000000 255 255 255
0.000000 -0.200000 0.141421 0.382684 -0.923879 -0.000000 255 255 255
0.141421 -0.141421 0.200000 0.382684 -0.923879 -0.000000 255 255 255
0.200000 -0.141421 0.141421 0.270598 -0.923880 0.270596 255 255 255
0.141421 -0.141421 0.200000 0.270598 -0.923880 0.270596 255 255 255
0.000000 -0.200000 0.141421 0.270598 -0.923880 0.270596 255 255 255
0.000000 -0.200000 0.141421 0.281085 -0.959683 -0.000000 255 255 255
0.000000 -0.200000 -0.000000 0.281085 -0.959683 -0.000000 255 255 255
0.200000 -0.141421 0.141421 0.281085 -0.959683 -0.000000 255 255 255
0.200000 -0.141421 0.141421 0.000001 -0.923879 0.382684 255 255 255
0.000000 -0.200000 -0.000000 0.000001 -0.923879 0.382684 255 255 255
0.200000 -0.200000 -0.000000 0.000001 -0.923879 0.382684 255 255 255
0.000000 -0.200000 -0.000000 0.000000 -1.000000 -0.000000 255 255 255
0.000000 -0.200000 -0.141422 0.000000 -1.000000 -0.000000 255 255 255
0.200000 -0.200000 -0.000000 0.000000 -1.000000 -0.000000 255 255 255
0.200000 -0.200000 -0.000000 0.261205 -0.891805 -0.369398 255 255 255
0.000000 -0.200000 -0.141422 0.261205 -0.891805 -0.369398 255 255 255
0.200000 -0.141421 -0.141422 0.261205 -0.891805 -0.369398 255 255 255
-0.141422 0.141421 0.200000 -0.923879 0.382684 0.000000 255 255 255
-0.200000 0.000000 0.141421 -0.923879 0.382684 0.000000 255 255 255
-0.200000 0.000000 0.200000 -0.923879 0.382684 0.000000 255 255 255
-0.141422 0.200000 0.141421 -0.923880 0.270598 0.270598 255 255 255
-0.200000 0.000000 0.141421 -0.923880 0.270598 0.270598 255 255 255
-0.141422 0.141421 0.200000 -0.923880 0.270598 0.270598 255 255 255
-0.200000 0.000000 -0.000000 -0.959683 0.281085 0.000000 255 255 255
-0.200000 0.000000 0.141421 -0.959683 0.281085 0.000000 255 255 255
-0.141422 0.200000 0.141421 -0.959683 0.281085 0.000000 255 255 255
-0.200001 0.200000 -0.000000 -0.923879 -0.000001 0.382685 255 255 255
-0.200000 0.000000 -0.000000 -0.923879 -0.000001 0.382685 255 255 255
-0.141422 0.200000 0.141421 -0.923879 -0.000001 0.382685 255 255 255
-0.200001 0.200000 -0.000000 -0.891805 0.261204 -0.369399 255 255 255
-0.141422 0.200000 -0.141421 -0.891805 0.261204 -0.369399 255 255 255
-0.200000 0.000000 -0.141422 -0.891805 0.261204 -0.369399 255 255 255
-0.200000 0.000000 -0.141422 -1.000000 -0.000001 -0.000000 255 255 255
-0.200000 0.000000 -0.000000 -1.000000 -0.000001 -0.000000 255 255 255
-0.200001 0.200000 -0.000000 -1.000000 -0.000001 -0.000000 255 255 255
0.000000 -0.200000 -0.141422 0.202803 -0.692406 -0.692419 255 255 255
0.000000 -0.141421 -0.200000 0.202803 -0.692406 -0.692419 255 255 255
0.200000 -0.141421 -0.141422 0.202803 -0.692406 -0.692419 255 255 255
0.000000 -0.141421 -0.200000 0.000000 -0.000002 -1.000000 255 255 255
-0.000000 0.000000 -0.200000 0.000000 -0.000002 -1.000000 255 255 255
0.200000 0.000000 -0.200000 0.000000 -0.000002 -1.000000 255 255 255
-0.141422 -0.141421 -0.200000 0.000000 -0.000002 -1.000000 255 255 255
-0.000000 0.200000 -0.200000 -0.000002 0.000001 -1.000000 255 255 255
-0.000000 0.000000 -0.200000 -0.000002 0.000001 -1.000000 255 255 255
-0.141422 0.000000 -0.200000 -0.000002 0.000001 -1.000000 255 255 255
0.200000 0.000000 -0.200000 -0.000000 0.382683 -0.923880 255 255 255
-0.000000 0.000000 -0.200000 -0.000000 0.382683 -0.923880 255 255 255
0.200000 0.141421 -0.141422 -0.000000 0.382683 -0.923880 255 255 255
-0.200000 0.000000 -0.141422 -0.692411 0.202804 -0.692414 255 255 255
-0.141422 0.200000 -0.141421 -0.692411 0.202804 -0.692414 255 255 255
-0.141422 0.000000 -0.200000 -0.692411 0.202804 -0.692414 255 255 255
0.200000 0.141421 -0.141422 0.166733 0.166737 -0.971802 255 255 255
-0.000000 0.000000 -0.200000 0.166733 0.166737 -0.971802 255 255 255
0.141421 0.200000 -0.141421 0.166733 0.166737 -0.971802 255 255 255
-0.141421 -0.141421 -0.141422 -0.678597 -0.281085 -0.678600 255 255 255
-0.200000 0.000000 -0.141422 -0.678597 -0.281085 -0.678600 255 255 255
-0.141422 0.000000 -0.200000 -0.678597 -0.281085 -0.678600 255 255 255
-0.141421 -0.141421 -0.141422 0.000000 -1.000000 -0.000006 255 255 255
-0.141422 -0.141421 -0.200000 0.000000 -1.000000 -0.000006 255 255 255
0.000000 -0.141421 -0.200000 0.000000 -1.000000 -0.000006 255 255 255
0.141421 0.200000 -0.141421 0.382684 0.000001 -0.923879 255 255 255
-0.000000 0.000000 -0.200000 0.382684 0.000001 -0.923879 255 255 255
-0.000000 0.200000 -0.200000 0.382684 0.000001 -0.923879 255 255 255
3.000000 0.141422 0.141421 -0.000000 0.382685 0.923879 255 0 0
0.200000 0.141421 0.141421 -0.000000 0.382685 0.923879 255 0 0
0.200000 0.000000 0.200000 -0.000000 0.382685 0.923879 255 0 0
3.000000 0.200000 -0.000000 -0.000000 0.923880 -0.382683 255 0 0
3.000000 0.141422 -0.141421 -0.000000 0.923880 -0.382683 255 0 0
0.200000 0.141421 -0.141422 -0.000000 0.923880 -0.382683 255 0 0
3.000000 0.200000 -0.000000 -0.000000 0.923879 0.382684 255 0 0
0.200000 0.200000 -0.000000 -0.000000 0.923879 0.382684 255 0 0
0.200000 0.141421 0.141421 -0.000000 0.923879 0.382684 255 0 0
3.000000 0.000000 0.200000 0.000000 -0.382685 0.923879 255 0 0
0.200000 0.000000 0.200000 0.000000 -0.382685 0.923879 255 0 0
0.200000 -0.141421 0.141421 0.000000 -0.382685 0.923879 255 0 0
-0.141421 0.141421 3.000000 -0.382683 0.923880 0.000000 0 0 255
-0.000000 0.200000 3.000000 -0.382683 0.923880 0.000000 0 0 255
-0.000000 0.200000 0.200000 -0.382683 0.923880 0.000000 0 0 255
0.141421 0.141421 3.000000 0.382683 0.923880 0.000000 0 0 255
0.141421 0.141421 0.200000 0.382683 0.923880 0.000000 0 0 255
-0.000000 0.200000 0.200000 0.382683 0.923880 0.000000 0 0 255
0.141421 0.200000 0.141421 0.678598 0.678600 0.281083 255 255 255
0.200000 0.141421 0.141421 0.678598 0.678600 0.281083 255 255 255
0.200000 0.200000 -0.000000 0.678598 0.678600 0.281083 255 255 255
0.141421 0.141421 0.200000 0.281084 0.678599 0.678598 255 255 255
0.141421 0.200000 0.141421 0.281084 0.678599 0.678598 255 255 255
-0.000000 0.200000 0.200000 0.281084 0.678599 0.678598 255 255 255
0.200000 0.141421 -0.141422 0.678597 0.678601 -0.281083 255 255 255
0.141421 0.200000 -0.141421 0.678597 0.678601 -0.281083 255 255 255
0.200000 0.200000 -0.000000 0.678597 0.678601 -0.281083 255 255 255
3.000000 0.141422 -0.141421 0.000000 0.382683 -0.923880 255 0 0
3.000000 -0.200000 -0.000000 0.000000 -0.923880 0.382684 255 0 0
0.200000 -0.141421 -0.141422 0.000000 -0.923879 -0.382684 255 0 0
3.000000 0.000000 -0.200000 0.000000 -0.382683 -0.923880 255 0 0
-0.000000 3.000000 0.200001 -0.382684 -0.000000 0.923879 0 255 0
-0.141422 0.200000 -0.141421 -0.382683 0.000000 -0.923880 0 255 0
-0.200000 3.000000 0.000001 -0.923880 0.000000 -0.382683 0 255 0
-0.141422 3.000000 -0.141421 -0.923880 0.000000 -0.382683 0 255 0
-0.200001 0.200000 -0.000000 -0.923880 0.000000 -0.382683 0 255 0
0.200000 0.200000 -0.000000 0.923880 -0.000000 0.382683 0 255 0
0.200000 3.000000 0.000001 0.923880 -0.000000 0.382683 0 255 0
0.141421 0.200000 0.141421 0.923880 -0.000000 0.382683 0 255 0
-0.141422 0.200000 0.141421 -0.923879 -0.000000 0.382685 0 255 0
-0.141422 3.000000 0.141422 -0.923879 -0.000000 0.382685 0 255 0
-0.200001 0.200000 -0.000000 -0.923879 -0.000000 0.382685 0 255 0
0.141421 3.000000 -0.141421 0.923879 0.000000 -0.382685 0 255 0
0.200000 3.000000 0.000001 0.923879 0.000000 -0.382685 0 255 0
0.141421 0.200000 -0.141421 0.923879 0.000000 -0.382685 0 255 0
-0.000000 3.000000 -0.199999 0.382684 0.000000 -0.923879 0 255 0
0.141421 3.000000 0.141422 0.382684 -0.000000 0.923879 0 255 0
0.000000 -0.200001 3.000000 -0.382684 -0.923879 -0.000000 0 0 255
-0.200000 -0.000000 3.000000 -0.923880 0.382683 0.000000 0 0 255
-0.141421 0.141421 3.000000 -0.923880 0.382683 0.000000 0 0 255
-0.200000 0.000000 0.200000 -0.923880 0.382683 0.000000 0 0 255
0.200000 0.000000 0.200000 0.923880 -0.382682 -0.000000 0 0 255
0.200000 -0.000000 3.000000 0.923880 -0.382682 -0.000000 0 0 255
0.141421 -0.141421 0.200000 0.923880 -0.382682 -0.000000 0 0 255
-0.141421 -0.141422 3.000000 -0.923880 -0.382682 -0.000000 0 0 255
-0.200000 -0.000000 3.000000 -0.923880 -0.382682 -0.000000 0 0 255
-0.141421 -0.141421 0.200000 -0.923880 -0.382682 -0.000000 0 0 255
0.141421 0.141421 3.000000 0.923879 0.382685 0.000000 0 0 255
0.200000 -0.000000 3.000000 0.923879 0.382685 0.000000 0 0 255
0.141421 0.141421 0.200000 0.923879 0.382685 0.000000 0 0 255
0.141421 -0.141422 3.000000 0.382684 -0.923879 -0.000000 0 0 255
0.000000 -0.200000 0.200000 -0.382684 -0.923879 -0.000000 255 255 255
-0.141421 -0.141421 -0.141422 -0.382684 -0.923879 -0.000000 255 255 255
-0.200000 0.000000 0.200000 -0.923879 -0.382685 -0.000000 255 255 255
-0.141421 -0.141421 -0.141422 -0.923879 -0.382685 -0.000000 255 255 255
0.200000 -0.141421 -0.141422 0.261202 -0.369398 -0.891806 255 255 255
0.000000 -0.141421 -0.200000 0.261202 -0.369398 -0.891806 255 255 255
0.200000 0.000000 -0.200000 0.261202 -0.369398 -0.891806 255 255 255
-0.141422 0.000000 -0.200000 -0.000002 0.000000 -1.000000 255 255 255
-0.000000 0.000000 -0.200000 -0.000002 0.000000 -1.000000 255 255 255
-0.141422 -0.141421 -0.200000 -0.000002 0.000000 -1.000000 255 255 255
-0.141422 0.200000 -0.141421 -0.369398 0.261204 -0.891806 255 255 255
-0.000000 0.200000 -0.200000 -0.369398 0.261204 -0.891806 255 255 255
-0.141422 0.000000 -0.200000 -0.369398 0.261204 -0.891806 255 255 255
-0.141422 -0.141421 -0.200000 -1.000000 -0.000000 0.000012 255 255 255
-0.141421 -0.141421 -0.141422 -1.000000 -0.000000 0.000012 255 255 255
-0.141422 0.000000 -0.200000 -1.000000 -0.000000 0.000012 255 255 255
0.000000 -0.200000 -0.141422 -0.281083 -0.678592 -0.678605 255 255 255
-0.141421 -0.141421 -0.141422 -0.281083 -0.678592 -0.678605 255 255 255
0.000000 -0.141421 -0.200000 -0.281083 -0.678592 -0.678605 255 255 255
3.000000 0.000000 0.200000 -0.000000 0.382683 0.923880 255 0 0
3.000000 0.141422 0.141421 -0.000000 0.382683 0.923880 255 0 0
0.200000 0.000000 0.200000 -0.000000 0.382683 0.923880 255 0 0
0.200000 0.200000 -0.000000 -0.000000 0.923880 -0.382683 255 0 0
3.000000 0.141422 0.141421 -0.000000 0.923880 0.382683 255 0 0
3.000000 0.200000 -0.000000 -0.000000 0.923880 0.382683 255 0 0
0.200000 0.141421 0.141421 -0.000000 0.923880 0.382683 255 0 0
3.000000 -0.141421 0.141421 -0.000000 -0.382684 0.923879 255 0 0
3.000000 0.000000 0.200000 -0.000000 -0.382684 0.923879 255 0 0
0.200000 -0.141421 0.141421 -0.000000 -0.382684 0.923879 255 0 0
-0.141422 0.141421 0.200000 -0.382683 0.923880 0.000000 0 0 255
-0.000000 0.200000 3.000000 0.382684 0.923879 0.000000 0 0 255
0.141421 0.141421 3.000000 0.382684 0.923879 0.000000 0 0 255
-0.000000 0.200000 0.200000 0.382684 0.923879 0.000000 0 0 255
3 0 1 2
3 3 4 5
3 6 7 8
3 9 10 11
3 12 13 14
3 15 16 17
3 18 19 20
3 21 22 23
3 24 25 26
3 27 28 29
3 30 31 32
3 33 34 35
3 36 37 38
3 39 40 41
3 42 43 44
3 45 46 47
3 48 49 50
3 51 52 53
3 54 55 56
3 57 58 59
3 60 61 62
3 63 64 65
3 66 67 68
3 69 70 71
3 72 73 74
3 75 76 77
3 78 79 80
3 81 82 83
3 84 85 86
3 87 88 89
3 90 91 92
3 93 94 95
3 96 97 98
3 99 100 101
3 102 103 104
3 105 106 107
3 108 109 110
3 111 112 113
3 114 115 116
3 117 118 119
3 120 121 122
3 123 124 125
3 126 127 128
3 129 130 131
3 132 133 134
3 135 136 137
3 138 139 140
3 141 140 139
3 142 141 143
3 144 145 146
3 145 144 147
3 148 147 149
3 150 151 152
3 153 154 155
3 156 157 158
3 159 160 161
3 162 163 164
3 165 166 167
3 168 169 170
3 171 172 173
3 174 175 176
3 177 178 179
3 180 181 182
3 183 184 185
3 186 187 188
3 189 190 191
3 190 189 192
3 193 194 195
3 196 197 198
3 199 200 201
3 202 203 204
3 205 206 207
3 208 209 210
3 211 212 213
3 214 215 216
3 217 218 219
3 220 221 222
3 223 224 225
3 226 227 228
3 229 230 231
3 232 233 234
3 235 236 237
3 238 239 240
3 241 24 26
3 242 27 29
3 243 30 32
3 244 33 35
3 245 60 62
3 246 63 65
3 247 248 249
3 250 251 252
3 253 254 255
3 256 257 258
3 259 78 80
3 260 81 83
3 261 108 110
3 262 263 264
3 265 266 267
3 268 269 270
3 271 272 273
3 274 123 125
3 275 138 140
3 143 141 139
3 276 142 143
3 277 144 146
3 148 145 147
3 278 148 149
3 279 280 281
3 282 283 284
3 285 286 287
3 288 289 290
3 291 292 293
3 294 295 296
3 297 217 219
3 298 299 300
3 301 302 303
3 304 226 228
3 305 306 307
