# Blender v2.78 (sub 0) OBJ File: ''
# www.blender.org
o marker
v 0.102410 -0.102410 -0.000522
v 0.132875 -0.132874 3.294899
v 0.132875 -0.132874 3.482864
v 0.145213 -1.292519 1.992423
v 0.145213 -1.292519 2.204574
v 1.292520 -0.145212 1.981274
v 1.292520 -0.145212 2.215722
v -0.102410 -0.102410 -0.000522
v -0.132875 -0.132874 3.294899
v 0.000000 -0.135362 -0.000522
v 0.000000 -0.132874 3.294899
v -0.132875 -0.132874 3.482864
v 0.000000 -0.132874 3.482864
v -0.145213 -1.292519 1.992423
v 0.000000 -1.292519 1.992423
v -0.145213 -1.292519 2.204574
v 0.000000 -1.292519 2.204574
v -1.292520 -0.145212 1.981274
v -1.292520 -0.145212 2.215722
v 0.135362 -0.000000 -0.000522
v 0.132875 0.000000 3.294899
v 0.102410 0.102410 -0.000522
v 0.132875 0.132875 3.294899
v 0.132875 0.000000 3.482864
v 0.132875 0.132875 3.482864
v 0.145213 1.292519 1.992422
v 0.145213 1.292519 2.204574
v 1.292520 0.000000 1.981274
v 1.292520 0.145213 1.981274
v 1.292520 0.000000 2.215722
v 1.292520 0.145213 2.215722
v -0.135362 -0.000000 -0.000522
v -0.132875 0.000000 3.294899
v -0.102410 0.102410 -0.000522
v -0.132875 0.132875 3.294899
v 0.000000 0.135362 -0.000522
v 0.000000 0.132875 3.294899
v -0.132875 0.000000 3.482864
v -0.132875 0.132875 3.482864
v 0.000000 0.132875 3.482864
v 0.000000 0.000000 3.482867
v -0.145213 1.292519 1.992422
v 0.000000 1.292519 1.992422
v -0.145213 1.292519 2.204574
v 0.000000 1.292519 2.204574
v -1.292520 0.000000 1.981274
v -1.292520 0.145213 1.981274
v -1.292520 0.000000 2.215722
v -1.292520 0.145213 2.215722
v 0.000000 -0.000000 -0.000522
vn 0.3495 0.0000 -0.9369
vn 0.5564 -0.5564 -0.6172
vn 0.7651 0.0000 -0.6439
vn 0.0000 -0.3515 -0.9362
vn 0.0000 -0.7651 -0.6439
vn 0.4030 0.0000 0.9152
vn 0.0000 0.0000 1.0000
vn 0.4144 -0.4164 0.8092
vn 0.9321 0.0000 0.3621
vn 0.6208 -0.6227 -0.4762
vn 0.0000 -0.3558 -0.9346
vn 0.0000 -0.4050 0.9143
vn 0.5473 -0.2973 -0.7823
vn 0.0000 -0.9329 0.3601
vn 0.6382 -0.7175 0.2788
vn 0.3538 0.0000 -0.9353
vn 0.7172 -0.6379 0.2805
vn 0.2957 -0.5472 -0.7830
vn -0.5564 -0.5564 -0.6172
vn -0.3495 0.0000 -0.9369
vn -0.7651 0.0000 -0.6439
vn -0.6208 -0.6227 -0.4762
vn -0.4030 0.0000 0.9152
vn -0.4144 -0.4164 0.8092
vn -0.9321 0.0000 0.3621
vn -0.5473 -0.2973 -0.7823
vn -0.6382 -0.7175 0.2788
vn -0.7172 -0.6379 0.2805
vn -0.3538 0.0000 -0.9353
vn -0.2957 -0.5472 -0.7830
vn 0.5564 0.5564 -0.6172
vn 0.0000 0.3515 -0.9362
vn 0.6208 0.6227 -0.4762
vn 0.4144 0.4164 0.8092
vn 0.0000 0.3558 -0.9346
vn 0.0000 0.4050 0.9143
vn 0.0000 0.9329 0.3601
vn 0.5473 0.2973 -0.7823
vn 0.6382 0.7175 0.2788
vn 0.7172 0.6379 0.2805
vn 0.2957 0.5472 -0.7830
vn -0.5564 0.5564 -0.6172
vn 0.0000 0.7651 -0.6439
vn -0.4144 0.4164 0.8092
vn -0.6208 0.6227 -0.4762
vn -0.5473 0.2973 -0.7823
vn -0.6382 0.7175 0.2788
vn -0.7172 0.6379 0.2805
vn -0.2957 0.5472 -0.7830
vn 0.0000 0.0000 -1.0000
s 1
f 21//1 1//2 20//3
f 1//2 11//4 10//5
f 24//6 41//7 3//8
f 3//8 30//9 24//6
f 2//10 15//11 11//4
f 3//8 41//7 13//12
f 4//13 17//14 15//11
f 3//8 17//14 5//15
f 2//10 5//15 4//13
f 28//16 7//17 6//18
f 2//10 28//16 6//18
f 2//10 7//17 3//8
f 8//19 33//20 32//21
f 8//19 11//4 9//22
f 38//23 12//24 41//7
f 48//25 12//24 38//23
f 15//11 9//22 11//4
f 12//24 13//12 41//7
f 17//14 14//26 15//11
f 12//24 17//14 13//12
f 9//22 16//27 12//24
f 19//28 46//29 18//30
f 9//22 46//29 33//20
f 19//28 9//22 12//24
f 22//31 21//1 20//3
f 22//31 37//32 23//33
f 24//6 25//34 41//7
f 30//9 25//34 24//6
f 43//35 23//33 37//32
f 25//34 40//36 41//7
f 45//37 26//38 43//35
f 25//34 45//37 40//36
f 23//33 27//39 25//34
f 31//40 28//16 29//41
f 23//33 28//16 21//1
f 31//40 23//33 25//34
f 33//20 34//42 32//21
f 34//42 37//32 36//43
f 38//23 41//7 39//44
f 39//44 48//25 38//23
f 35//45 43//35 37//32
f 39//44 41//7 40//36
f 42//46 45//37 43//35
f 39//44 45//37 44//47
f 35//45 44//47 42//46
f 46//29 49//48 47//49
f 46//29 35//45 33//20
f 35//45 49//48 39//44
f 10//5 8//19 50//50
f 8//19 32//21 50//50
f 34//42 50//50 32//21
f 36//43 50//50 34//42
f 36//43 22//31 50//50
f 22//31 20//3 50//50
f 1//2 50//50 20//3
f 10//5 50//50 1//2
f 21//1 2//10 1//2
f 1//2 2//10 11//4
f 3//8 7//17 30//9
f 2//10 4//13 15//11
f 4//13 5//15 17//14
f 3//8 13//12 17//14
f 2//10 3//8 5//15
f 28//16 30//9 7//17
f 2//10 21//1 28//16
f 2//10 6//18 7//17
f 8//19 9//22 33//20
f 8//19 10//5 11//4
f 48//25 19//28 12//24
f 15//11 14//26 9//22
f 17//14 16//27 14//26
f 12//24 16//27 17//14
f 9//22 14//26 16//27
f 19//28 48//25 46//29
f 9//22 18//30 46//29
f 19//28 18//30 9//22
f 22//31 23//33 21//1
f 22//31 36//43 37//32
f 30//9 31//40 25//34
f 43//35 26//38 23//33
f 45//37 27//39 26//38
f 25//34 27//39 45//37
f 23//33 26//38 27//39
f 31//40 30//9 28//16
f 23//33 29//41 28//16
f 31//40 29//41 23//33
f 33//20 35//45 34//42
f 34//42 35//45 37//32
f 39//44 49//48 48//25
f 35//45 42//46 43//35
f 42//46 44//47 45//37
f 39//44 40//36 45//37
f 35//45 39//44 44//47
f 46//29 48//25 49//48
f 46//29 47//49 35//45
f 35//45 47//49 49//48
