ply
format ascii 1.0
comment Created by Blender 2.78 (sub 0) - www.blender.org, source file: ''
element vertex 518
property float x
property float y
property float z
property float s
property float t
property uchar red
property uchar green
property uchar blue
element face 444
property list uchar uint vertex_indices
end_header
-2.577170 39.217392 7.504466 0.999999 0.318051 255 255 0
-2.583918 32.217392 7.537973 0.875000 0.318229 255 255 0
0.000000 32.217392 7.538449 0.875000 0.250000 255 255 0
0.000000 39.217392 7.504466 0.999999 0.250000 255 255 0
-9.467800 39.217392 5.540962 0.999999 0.500000 255 255 0
-9.463634 32.217392 5.546366 0.875000 0.499890 255 255 0
15.049998 27.168119 2.932736 0.264584 0.750000 255 255 0
9.449999 22.767393 5.564052 0.204947 0.823697 255 255 0
15.049998 22.767393 2.925021 0.204947 0.750000 255 255 0
9.481549 41.935772 5.540962 0.464709 0.823282 255 255 0
14.067060 39.217392 3.384347 0.427871 0.762936 255 255 0
15.049998 41.861038 2.953903 0.463697 0.750000 255 255 0
9.467800 39.217392 5.540962 0.427871 0.823463 255 255 0
9.463634 32.217392 5.546366 0.333010 0.823518 255 255 0
14.067060 27.868120 3.394738 0.274070 0.762936 255 255 0
-9.449999 22.767393 5.564052 0.204947 0.823859 255 255 0
-15.049998 27.168119 2.932736 0.264584 0.750000 255 255 0
-15.049998 22.767393 2.925021 0.204947 0.750000 255 255 0
-14.067060 39.217392 3.384347 0.427871 0.762964 255 255 0
-9.481549 41.935772 5.540962 0.464709 0.823443 255 255 0
-15.049998 41.861038 2.953903 0.463696 0.750000 255 255 0
-9.467800 39.217392 5.540962 0.427871 0.823624 255 255 0
-9.463634 32.217392 5.546366 0.333010 0.823679 255 255 0
-14.067060 27.868120 3.394738 0.274070 0.762964 255 255 0
15.049998 41.861038 2.953903 0.464659 0.875000 255 255 0
13.757727 44.463535 0.000001 0.499995 0.906250 255 255 0
13.778854 44.092800 2.739409 0.494965 0.877269 255 255 0
15.049998 41.861038 -2.953901 0.464659 0.937499 255 255 0
13.778854 44.092800 -2.739407 0.494965 0.935231 255 255 0
15.049998 39.917389 2.945139 0.438265 0.875093 255 255 0
15.049998 39.917389 -2.953901 0.438265 0.937499 255 255 0
-15.049998 41.861038 -2.953901 0.464659 0.937499 255 255 0
-13.757727 44.463535 0.000001 0.499995 0.906250 255 255 0
-13.778854 44.092800 -2.739407 0.494965 0.935231 255 255 0
-15.049998 41.861038 2.953903 0.464659 0.875000 255 255 0
-13.778854 44.092800 2.739409 0.494965 0.877269 255 255 0
-15.049998 39.917389 2.945139 0.438265 0.875093 255 255 0
-15.049998 39.917389 -2.953901 0.438265 0.937499 255 255 0
-2.545427 39.217392 -7.537971 0.250000 0.420570 255 255 0
-9.474242 39.217392 -5.540960 0.250000 0.250000 255 255 0
-7.406870 42.057854 -5.176497 0.355964 0.269011 255 255 0
2.579018 39.217392 -7.537971 0.999997 0.181947 255 255 0
2.553567 35.367390 -7.538918 0.862500 0.182618 255 255 0
0.000000 35.367390 -7.538918 0.862500 0.250000 255 255 0
0.000000 39.217392 -7.537971 0.999997 0.250000 255 255 0
2.583918 32.217392 7.537973 0.499995 0.181741 255 255 0
0.000000 20.809345 7.542500 0.019902 0.250000 255 255 0
3.086387 20.809345 7.542500 0.019902 0.168467 255 255 0
0.000000 32.217392 7.538449 0.499995 0.250000 255 255 0
-2.583918 32.217392 7.537973 0.499995 0.181741 255 255 0
0.000000 20.809345 7.542500 0.018066 0.249997 255 255 0
0.000000 32.217392 7.538449 0.499995 0.249997 255 255 0
-3.086388 20.809345 7.542500 0.018066 0.168467 255 255 0
-1.469529 13.254940 6.089125 0.000000 0.434072 255 255 0
0.000000 20.809345 7.542500 0.250000 0.499997 255 255 0
-3.086388 20.809345 7.542500 0.250000 0.361533 255 255 0
0.000000 13.254940 6.089125 0.000000 0.499997 255 255 0
0.000000 20.809345 7.542500 0.249997 0.500000 255 255 0
1.482404 13.254940 6.089125 0.000000 0.433245 255 255 0
3.086387 20.809345 7.542500 0.249997 0.361015 255 255 0
0.000000 13.254940 6.089125 0.000000 0.500000 255 255 0
0.000000 11.776830 1.555893 0.637098 0.624999 255 255 0
-1.438026 10.734913 1.555893 0.625000 0.594638 255 255 0
-1.935656 11.776830 1.555893 0.637098 0.584131 255 255 0
0.000000 10.734913 1.555893 0.625000 0.624999 255 255 0
1.450900 10.734913 1.555893 0.625000 0.594343 255 255 0
0.000000 11.776830 1.555893 0.637098 0.625000 255 255 0
1.948530 11.776830 1.555893 0.637098 0.583829 255 255 0
0.000000 10.734913 1.555893 0.625000 0.625000 255 255 0
0.000000 17.867393 0.810009 0.707821 0.624999 255 255 0
-5.849646 17.867393 0.810009 0.707821 0.501492 255 255 0
0.000000 17.867393 0.810009 0.707821 0.625000 255 255 0
5.808975 17.867393 0.810009 0.707821 0.502259 255 255 0
5.915898 32.264740 0.812769 0.500716 0.750000 255 255 0
0.000000 32.217392 -3.903413 0.625000 0.874999 255 255 0
5.949999 32.217392 -3.903413 0.500000 0.874999 255 255 0
0.000000 32.264740 0.812769 0.625000 0.750000 255 255 0
-5.920326 32.264740 0.812769 0.749377 0.750000 255 255 0
-5.949999 32.217392 -3.903413 0.749997 0.874999 255 255 0
0.000000 32.217392 -3.903413 0.750000 0.250000 255 255 0
5.949999 32.217392 -3.903413 0.750000 0.092995 255 255 0
-2.553567 35.367390 -7.538918 0.862500 0.182618 255 255 0
0.000000 32.217392 -3.903413 0.750000 0.249997 255 255 0
-5.949999 32.217392 -3.903413 0.750000 0.092995 255 255 0
0.000000 35.367390 -7.538918 0.862500 0.249997 255 255 0
-2.545427 39.217392 -7.537971 0.999997 0.182833 255 255 0
0.000000 39.217392 -7.537971 0.999997 0.249997 255 255 0
0.000000 32.264740 0.812769 0.874997 0.625000 255 255 0
5.915898 32.264740 0.812769 0.874997 0.500000 255 255 0
0.000000 32.264740 0.812769 0.874997 0.624999 255 255 0
-5.920326 32.264740 0.812769 0.874997 0.500000 255 255 0
0.000000 48.039345 -0.804733 0.624607 0.375000 255 255 0
2.557616 45.918850 -3.398498 0.580745 0.413761 255 255 0
0.000000 45.918850 -3.398498 0.580745 0.375000 255 255 0
5.505011 48.020657 -0.815433 0.624220 0.458430 255 255 0
-2.524025 45.918850 -3.398498 0.580745 0.336748 255 255 0
-5.595282 48.058338 -0.793858 0.624999 0.290202 255 255 0
0.000000 48.039345 1.067235 0.624607 0.375000 255 255 0
2.557616 45.918850 3.398500 0.580745 0.413761 255 255 0
5.505011 48.020657 1.077935 0.624220 0.458430 255 255 0
0.000000 45.918850 3.398500 0.580745 0.375000 255 255 0
-2.524025 45.918850 3.398500 0.580745 0.336748 255 255 0
-5.595282 48.058338 1.056360 0.624999 0.290202 255 255 0
0.000000 48.039345 -0.804733 0.718496 0.906073 255 255 0
-5.595282 48.058338 1.056360 0.749999 0.875356 255 255 0
0.000000 48.039345 1.067235 0.718496 0.875177 255 255 0
-5.595282 48.058338 -0.793858 0.749999 0.905894 255 255 0
5.505011 48.020657 -0.815433 0.687500 0.906250 255 255 0
5.505011 48.020657 1.077935 0.687500 0.875000 255 255 0
2.577170 39.217392 7.504466 0.999999 0.318051 255 255 0
2.583918 32.217392 7.537973 0.875000 0.318229 255 255 0
2.571084 42.057854 7.124251 0.607132 0.169770 255 255 0
0.000000 39.217392 7.504466 0.500000 0.249926 255 255 0
2.577170 39.217392 7.504466 0.500000 0.169581 255 255 0
0.000000 42.057854 7.124251 0.607132 0.249926 255 255 0
-2.537493 42.057854 7.124251 0.607132 0.170818 255 255 0
-2.543549 39.217392 7.504466 0.500000 0.170629 255 255 0
0.000000 39.217392 -7.537971 0.250000 0.499926 255 255 0
2.571084 42.057854 -7.124249 0.355964 0.419770 255 255 0
2.579018 39.217392 -7.537971 0.250000 0.419523 255 255 0
0.000000 42.057854 -7.124249 0.355964 0.499926 255 255 0
-2.537493 42.057854 -7.124249 0.355964 0.420818 255 255 0
2.557616 45.918850 -5.176497 0.499997 0.420190 255 255 0
0.000000 45.918850 -5.176497 0.499997 0.499926 255 255 0
-2.524025 45.918850 -5.176497 0.499997 0.421237 255 255 0
2.531091 45.845798 5.169500 0.750000 0.171017 255 255 0
0.000000 45.845798 5.169500 0.750000 0.249926 255 255 0
-2.510538 45.845798 5.169500 0.750000 0.171658 255 255 0
2.557616 45.918850 -5.176497 0.542942 0.937499 255 255 0
0.000000 45.918850 -3.398498 0.500000 0.875000 255 255 0
2.557616 45.918850 -3.398498 0.542942 0.875000 255 255 0
0.000000 45.918850 -5.176497 0.500000 0.937499 255 255 0
-2.524025 45.918850 -3.398498 0.542596 0.875000 255 255 0
-2.524025 45.918850 -5.176497 0.542596 0.937499 255 255 0
0.000000 45.918850 3.398500 0.500000 0.937500 255 255 0
2.531091 45.845798 5.169500 0.542871 0.875000 255 255 0
2.557616 45.918850 3.398500 0.543320 0.937500 255 255 0
0.000000 45.845798 5.169500 0.500000 0.875000 255 255 0
-2.510538 45.845798 5.169500 0.542668 0.875000 255 255 0
-2.524025 45.918850 3.398500 0.542897 0.937500 255 255 0
-9.467800 39.217392 5.540962 0.500000 0.000000 255 255 0
-7.354934 42.015205 5.169500 0.605523 0.020630 255 255 0
-9.463634 32.217392 5.546366 0.499995 0.000000 255 255 0
-8.049999 28.367392 5.162500 0.337356 0.037344 255 255 0
4.951444 15.238564 6.089125 0.065645 0.277029 255 255 0
-4.939470 15.238564 6.089125 0.065645 0.278397 255 255 0
-5.849646 17.867393 0.810009 0.767971 0.665360 255 255 0
-4.938246 13.789376 1.555893 0.673598 0.647083 255 255 0
-5.438080 13.793939 3.727720 0.673704 0.625000 255 255 0
-4.938246 13.789376 1.555893 0.660468 0.520735 255 255 0
4.939135 13.789376 1.555893 0.673598 0.647083 255 255 0
5.808975 17.867393 0.810009 0.767971 0.665360 255 255 0
5.450053 13.793939 3.727720 0.673704 0.625000 255 255 0
4.939135 13.789376 1.555893 0.660468 0.520639 255 255 0
-2.153116 11.588065 3.505469 0.802643 0.821242 255 255 0
-0.970972 11.730781 5.586864 0.808838 0.763849 255 255 0
-1.469529 13.254940 6.089125 0.874999 0.750000 255 255 0
-1.498930 10.375341 3.523362 0.750000 0.820749 255 255 0
-0.970972 11.730781 5.586864 0.625000 0.885556 255 255 0
1.482404 13.254940 6.089125 0.648613 0.937499 255 255 0
-1.469529 13.254940 6.089125 0.648613 0.875000 255 255 0
1.482404 13.254940 6.089125 0.687499 0.937499 255 255 0
-0.970972 11.730781 5.586864 0.648613 0.885556 255 255 0
0.983846 11.730781 5.586864 0.648613 0.926944 255 255 0
0.983846 11.730781 5.586864 0.808838 0.763849 255 255 0
2.165990 11.588065 3.505469 0.802643 0.821242 255 255 0
1.482404 13.254940 6.089125 0.874999 0.750000 255 255 0
1.511804 10.375341 3.523362 0.750000 0.820749 255 255 0
-1.438026 10.734913 1.555893 0.765609 0.874999 255 255 0
-1.935656 11.776830 1.555893 0.810837 0.874999 255 255 0
1.450900 10.734913 1.555893 0.765609 0.874999 255 255 0
1.948530 11.776830 1.555893 0.810837 0.874999 255 255 0
1.450900 10.734913 1.555893 0.627529 0.489517 255 255 0
-1.498930 10.375341 3.523362 0.749999 0.367495 255 255 0
-1.438026 10.734913 1.555893 0.747471 0.489517 255 255 0
1.511804 10.375341 3.523362 0.625000 0.367495 255 255 0
2.165990 11.588065 3.505469 0.771536 0.392484 255 255 0
4.951444 15.238564 6.089125 0.859292 0.250000 255 255 0
1.482404 13.254940 6.089125 0.750000 0.250000 255 255 0
5.450053 13.793939 3.727720 0.874999 0.380228 255 255 0
-4.939470 15.238564 6.089125 0.859295 0.250000 255 255 0
-2.153116 11.588065 3.505469 0.771531 0.392484 255 255 0
-1.469529 13.254940 6.089125 0.750000 0.250000 255 255 0
-5.438080 13.793939 3.727720 0.874999 0.380228 255 255 0
4.939135 13.789376 1.555893 0.858904 0.500000 255 255 0
1.948530 11.776830 1.555893 0.764685 0.500000 255 255 0
-4.938246 13.789376 1.555893 0.859256 0.499997 255 255 0
-1.935656 11.776830 1.555893 0.764682 0.499997 255 255 0
-0.970972 11.730781 5.586864 0.728080 0.250000 255 255 0
0.983846 11.730781 5.586864 0.646920 0.250000 255 255 0
-5.849646 17.867393 0.810009 0.767971 0.749999 255 255 0
-5.438080 13.793939 3.727720 0.673704 0.718864 255 255 0
-5.949999 17.692394 3.603951 0.763921 0.721897 255 255 0
-5.849646 17.867393 0.810009 0.332619 0.674440 255 255 0
-5.949999 17.692394 3.603951 0.329065 0.629650 255 255 0
-8.049999 7.643896 3.894036 0.125000 0.625000 255 255 0
15.049998 27.168119 -2.953901 0.265133 0.937499 255 255 0
15.049998 22.767393 2.925021 0.205373 0.875306 255 255 0
15.049998 22.767393 -2.953901 0.205373 0.937499 255 255 0
15.049998 27.168119 2.932736 0.265133 0.875224 255 255 0
15.049998 27.868120 -1.798474 0.274639 0.925276 255 255 0
15.049998 39.217392 -1.798474 0.428759 0.925276 255 255 0
15.049998 27.868120 1.798476 0.274639 0.887224 255 255 0
15.049998 39.217392 1.798476 0.428759 0.887224 255 255 0
-15.049998 22.767393 2.925021 0.205373 0.875306 255 255 0
-15.049998 27.168119 -2.953901 0.265133 0.937499 255 255 0
-15.049998 22.767393 -2.953901 0.205373 0.937499 255 255 0
-15.049998 27.168119 2.932736 0.265133 0.875224 255 255 0
-15.049998 27.868120 -1.798474 0.274639 0.925276 255 255 0
-15.049998 39.217392 -1.798474 0.428759 0.925276 255 255 0
-15.049998 27.868120 1.798476 0.274639 0.887224 255 255 0
-15.049998 39.217392 1.798476 0.428759 0.887224 255 255 0
8.247993 44.539955 2.541971 0.124999 0.553462 255 255 0
13.757727 44.463535 0.000001 0.000478 0.625000 255 255 0
8.247993 44.539955 -2.541969 0.124999 0.696538 255 255 0
-8.247993 44.539955 2.541971 0.125000 0.553462 255 255 0
-8.247993 44.539955 -2.541969 0.125000 0.696538 255 255 0
-13.757727 44.463535 0.000001 0.000478 0.625000 255 255 0
13.778854 44.092800 -2.739407 0.000000 0.702094 255 255 0
-13.778854 44.092800 -2.739407 0.000000 0.702094 255 255 0
13.778854 44.092800 2.739409 0.000000 0.547906 255 255 0
-13.778854 44.092800 2.739409 0.000000 0.547906 255 255 0
-5.949999 32.217392 -3.903413 0.624038 0.749999 255 255 0
-5.920326 32.264740 0.812769 0.624995 0.674395 255 255 0
-5.949999 17.692394 -3.886959 0.329065 0.749736 255 255 0
5.808975 17.867393 0.810009 0.332619 0.674440 255 255 0
5.949999 32.217392 -3.903413 0.624038 0.749999 255 255 0
5.949999 17.692394 -3.886959 0.329065 0.749736 255 255 0
5.915898 32.264740 0.812769 0.624995 0.674395 255 255 0
-8.247993 44.539955 2.541971 0.687500 0.906250 255 255 0
-5.595282 48.058338 -0.793858 0.718750 0.926755 255 255 0
-8.247993 44.539955 -2.541969 0.687500 0.937500 255 255 0
-5.595282 48.058338 1.056360 0.718750 0.915382 255 255 0
5.505011 48.020657 -0.815433 0.718750 0.926887 255 255 0
8.247993 44.539955 2.541971 0.687500 0.906250 255 255 0
8.247993 44.539955 -2.541969 0.687500 0.937500 255 255 0
5.505011 48.020657 1.077935 0.718750 0.915249 255 255 0
8.665700 41.975491 -4.759486 0.352892 0.479766 255 255 0
9.474242 39.217392 -5.540960 0.250000 0.454559 255 255 0
7.444946 42.057854 -5.176497 0.355964 0.499997 255 255 0
9.481549 41.935772 -5.540959 0.351410 0.454332 255 255 0
7.444946 42.057854 -5.176497 0.355964 0.267824 255 255 0
7.379940 42.015205 -3.405498 0.354374 0.269851 255 255 0
8.665700 41.975491 -4.759486 0.352892 0.250000 255 255 0
-8.665700 41.975491 -4.759486 0.352892 0.479766 255 255 0
-7.406870 42.057854 -5.176497 0.355964 0.499997 255 255 0
-9.474242 39.217392 -5.540960 0.250000 0.454559 255 255 0
-9.481549 41.935772 -5.540959 0.351410 0.454332 255 255 0
-8.665700 41.975491 -4.759486 0.352892 0.250000 255 255 0
-7.354934 42.015205 -3.405498 0.354374 0.270630 255 255 0
8.665700 41.975491 4.759489 0.465248 0.834019 255 255 0
7.379940 42.015205 5.169500 0.465786 0.850939 255 255 0
7.379940 42.015205 3.405500 0.465786 0.850939 255 255 0
-8.665700 41.975491 4.759489 0.465247 0.834203 255 255 0
-7.354934 42.015205 5.169500 0.465786 0.851491 255 255 0
-7.354934 42.015205 3.405500 0.465786 0.851491 255 255 0
10.053056 44.159943 -4.441659 0.494850 0.815761 255 255 0
7.379940 42.015205 -3.405498 0.465786 0.850939 255 255 0
8.247993 44.539955 -2.541969 0.499995 0.839516 255 255 0
8.665700 41.975491 -4.759486 0.465248 0.834019 255 255 0
8.665700 41.975491 -4.759486 0.590248 0.587696 255 255 0
10.053056 44.159943 -4.441659 0.619850 0.568639 255 255 0
9.481549 41.935772 -5.540959 0.589709 0.576490 255 255 0
10.053056 44.159943 4.441662 0.494850 0.815761 255 255 0
8.247993 44.539955 2.541971 0.499995 0.839516 255 255 0
10.053056 44.159943 -4.441659 0.084205 0.749997 255 255 0
10.053056 44.159943 4.441662 0.084205 0.500000 255 255 0
-7.354934 42.015205 -3.405498 0.465786 0.851491 255 255 0
-10.053056 44.159943 -4.441659 0.494850 0.815905 255 255 0
-8.247993 44.539955 -2.541969 0.499995 0.839712 255 255 0
-8.665700 41.975491 -4.759486 0.465247 0.834203 255 255 0
-10.053056 44.159943 -4.441659 0.619850 0.568639 255 255 0
-8.665700 41.975491 -4.759486 0.590247 0.587696 255 255 0
-9.481549 41.935772 -5.540959 0.589709 0.576490 255 255 0
-10.053056 44.159943 4.441662 0.494850 0.815905 255 255 0
-8.247993 44.539955 2.541971 0.499995 0.839712 255 255 0
-7.716069 9.066293 -0.339500 0.153886 0.692867 255 255 0
-8.049999 7.643896 -3.878036 0.125000 0.749593 255 255 0
-8.049999 7.643896 -0.941500 0.125000 0.702518 255 255 0
-7.716069 9.066293 0.339500 0.153886 0.681982 255 255 0
7.716069 9.066293 -0.339500 0.153886 0.692867 255 255 0
7.716069 9.066293 0.339500 0.153886 0.681982 255 255 0
8.049999 7.643896 -3.878036 0.125000 0.749593 255 255 0
8.049999 7.643896 -0.941500 0.125000 0.702518 255 255 0
-8.049999 7.643896 0.941500 0.125000 0.672332 255 255 0
8.049999 7.643896 3.894036 0.125000 0.625000 255 255 0
8.049999 7.643896 0.941500 0.125000 0.672332 255 255 0
5.808975 17.867393 0.810009 0.767971 0.749999 255 255 0
5.949999 17.692394 3.603951 0.763921 0.721897 255 255 0
5.450053 13.793939 3.727720 0.673704 0.718864 255 255 0
5.949999 17.692394 3.603951 0.329065 0.629650 255 255 0
7.716069 9.066293 0.339500 0.937499 0.807168 255 255 0
11.910177 9.124082 -0.339500 0.875112 0.818089 255 255 0
11.917689 9.124082 0.339500 0.875000 0.807168 255 255 0
7.716069 9.066293 -0.339500 0.937499 0.818089 255 255 0
-11.910177 9.124082 -0.339500 0.875112 0.818089 255 255 0
-7.716069 9.066293 0.339500 0.937499 0.807168 255 255 0
-11.917689 9.124082 0.339500 0.875000 0.807168 255 255 0
-7.716069 9.066293 -0.339500 0.937499 0.818089 255 255 0
8.049999 7.643896 0.941500 0.932533 0.797486 255 255 0
11.620282 7.643896 2.843075 0.879424 0.766903 255 255 0
8.049999 7.643896 3.894036 0.932533 0.750000 255 255 0
11.612027 7.643896 0.941500 0.879547 0.797486 255 255 0
-11.620282 7.643896 2.843075 0.879424 0.766903 255 255 0
-8.049999 7.643896 0.941500 0.932533 0.797486 255 255 0
-8.049999 7.643896 3.894036 0.932533 0.750000 255 255 0
-11.612027 7.643896 0.941500 0.879547 0.797486 255 255 0
11.917689 9.124082 0.339500 0.020100 0.902658 255 255 0
11.620282 7.643896 2.843075 0.000000 0.876172 255 255 0
11.612027 7.643896 0.941500 0.000000 0.896290 255 255 0
11.587264 7.643896 -2.881102 0.000000 0.936730 255 255 0
11.910177 9.124082 -0.339500 0.020100 0.909842 255 255 0
11.595518 7.643896 -0.941500 0.000000 0.916210 255 255 0
-11.620282 7.643896 2.843075 0.000000 0.876172 255 255 0
-11.917689 9.124082 0.339500 0.020100 0.902658 255 255 0
-11.612027 7.643896 0.941500 0.000000 0.896290 255 255 0
-11.910177 9.124082 -0.339500 0.020100 0.909842 255 255 0
-11.587264 7.643896 -2.881102 0.000000 0.936730 255 255 0
-11.595518 7.643896 -0.941500 0.000000 0.916210 255 255 0
8.049999 7.643896 -0.941500 0.932533 0.827771 255 255 0
11.595518 7.643896 -0.941500 0.879792 0.827771 255 255 0
-8.049999 7.643896 -0.941500 0.932533 0.827771 255 255 0
-11.595518 7.643896 -0.941500 0.879792 0.827771 255 255 0
11.587264 7.643896 -2.881102 0.879915 0.858966 255 255 0
8.049999 7.643896 -3.878036 0.932533 0.874999 255 255 0
-11.587264 7.643896 -2.881102 0.879915 0.858966 255 255 0
-8.049999 7.643896 -3.878036 0.932533 0.874999 255 255 0
-8.247993 44.539955 -2.541969 0.552223 0.250000 255 255 0
-5.599999 44.817394 -3.401404 0.557962 0.290131 255 255 0
5.599999 44.817394 -3.401404 0.557962 0.459869 255 255 0
8.247993 44.539955 -2.541969 0.552223 0.499997 255 255 0
8.247993 44.539955 2.541971 0.552223 0.499997 255 255 0
5.599999 44.817394 3.401407 0.557962 0.459869 255 255 0
-5.599999 44.817394 3.401407 0.557962 0.290131 255 255 0
-8.247993 44.539955 2.541971 0.552223 0.250000 255 255 0
7.379940 42.015205 -3.405498 0.500000 0.486844 255 255 0
7.379940 42.015205 3.405500 0.500000 0.486844 255 255 0
-7.354934 42.015205 -3.405498 0.500000 0.263534 255 255 0
-7.354934 42.015205 3.405500 0.500000 0.263534 255 255 0
9.467800 39.217392 5.540962 0.500000 0.000000 255 255 0
7.379940 42.015205 5.169500 0.605523 0.019851 255 255 0
9.467800 39.217392 5.540962 0.999999 0.499997 255 255 0
9.463634 32.217392 5.546366 0.875000 0.499890 255 255 0
9.463634 32.217392 5.546366 0.499995 0.000000 255 255 0
8.053632 28.367392 5.173224 0.337976 0.037248 255 255 0
-9.465773 35.367390 -5.540960 0.862500 0.000223 255 255 0
-9.474242 39.217392 -5.540960 0.999997 0.000000 255 255 0
5.551651 20.336422 6.721684 0.000000 0.103343 255 255 0
8.049999 22.767393 5.162499 0.102305 0.037344 255 255 0
-5.572439 20.381708 6.725233 0.000000 0.102793 255 255 0
-8.049999 22.767393 5.162499 0.100784 0.037344 255 255 0
15.049998 27.868120 1.798476 0.274070 0.750000 255 255 0
15.049998 39.217392 1.798476 0.427871 0.750000 255 255 0
15.049998 39.917389 2.945139 0.437357 0.750000 255 255 0
-15.049998 27.868120 1.798476 0.274070 0.750000 255 255 0
-15.049998 39.217392 1.798476 0.427871 0.750000 255 255 0
-15.049998 39.917389 2.945139 0.437357 0.750000 255 255 0
8.049999 22.767393 5.162499 0.204947 0.842121 255 255 0
8.053632 28.367392 5.173224 0.280836 0.842074 255 255 0
-8.049999 22.767393 5.162499 0.204947 0.842323 255 255 0
-8.049999 28.367392 5.162500 0.280836 0.842323 255 255 0
9.474242 39.217392 -5.540960 0.250000 0.250000 255 255 0
9.465773 35.367390 -5.540960 0.862500 0.000224 255 255 0
9.474242 39.217392 -5.540960 0.999997 0.000000 255 255 0
9.449999 22.767393 -5.540960 0.329947 0.576923 255 255 0
15.049998 27.168119 -2.953901 0.389584 0.500000 255 255 0
15.049998 22.767393 -2.953901 0.329947 0.500000 255 255 0
15.049998 41.861038 -2.953901 0.588697 0.500000 255 255 0
9.474242 39.217392 -5.540960 0.552871 0.576590 255 255 0
9.465773 35.367390 -5.540960 0.500697 0.576706 255 255 0
14.067060 27.868120 -3.374343 0.399070 0.513502 255 255 0
14.067060 39.217392 -3.380715 0.552871 0.513502 255 255 0
15.049998 39.917389 -2.953901 0.562357 0.500000 255 255 0
-15.049998 27.168119 -2.953901 0.389584 0.500000 255 255 0
-9.449999 22.767393 -5.540960 0.329947 0.576923 255 255 0
-15.049998 22.767393 -2.953901 0.329947 0.500000 255 255 0
-9.474242 39.217392 -5.540960 0.552871 0.576590 255 255 0
-15.049998 41.861038 -2.953901 0.588696 0.500000 255 255 0
-9.465773 35.367390 -5.540960 0.500697 0.576706 255 255 0
-14.067060 27.868120 -3.374343 0.399070 0.513502 255 255 0
-14.067060 39.217392 -3.380715 0.552871 0.513502 255 255 0
-15.049998 39.917389 -2.953901 0.562357 0.500000 255 255 0
8.049999 7.643896 3.894036 0.000000 0.842121 255 255 0
5.949999 17.692394 3.603951 0.136173 0.869758 255 255 0
5.949999 17.692394 -3.886959 0.261173 0.624999 255 255 0
5.949999 32.217392 -3.903413 0.458010 0.624999 255 255 0
8.049999 7.643896 -3.878036 0.125000 0.596154 255 255 0
-5.949999 17.692394 -3.886959 0.261173 0.624999 255 255 0
-5.949999 32.217392 -3.903413 0.458010 0.624999 255 255 0
-8.049999 7.643896 -3.878036 0.125000 0.596154 255 255 0
-8.049999 7.643896 3.894036 0.000000 0.842323 255 255 0
-5.949999 17.692394 3.603951 0.136173 0.870020 255 255 0
15.049998 39.217392 -1.798474 0.552871 0.500000 255 255 0
15.049998 27.868120 -1.798474 0.399070 0.500000 255 255 0
-15.049998 39.217392 -1.798474 0.552871 0.500000 255 255 0
-15.049998 27.868120 -1.798474 0.399070 0.500000 255 255 0
11.587264 7.643896 -2.881102 0.125000 0.547565 255 255 0
11.620282 7.643896 2.843075 0.000000 0.795136 255 255 0
5.551651 20.336422 6.721684 0.172004 0.874999 255 255 0
13.778854 44.092800 -2.739407 0.618940 0.517461 255 255 0
13.778854 44.092800 2.739409 0.493940 0.766728 255 255 0
4.951444 15.238564 6.089125 0.707135 0.661000 255 255 0
5.551651 20.336422 6.721684 0.825109 0.645500 255 255 0
-11.587264 7.643896 -2.881102 0.125000 0.547565 255 255 0
-11.620282 7.643896 2.843075 0.000000 0.795235 255 255 0
-5.572439 20.381708 6.725233 0.172618 0.874999 255 255 0
-5.599999 44.817394 -5.176497 0.458910 0.325342 255 255 0
5.599999 44.817394 -5.176497 0.458910 0.325342 255 255 0
-5.599999 44.817394 5.169500 0.711212 0.075342 255 255 0
5.599999 44.817394 5.169500 0.711212 0.075342 255 255 0
-10.053056 44.159943 -4.441659 0.084205 0.749997 255 255 0
-13.778854 44.092800 -2.739407 0.618940 0.517461 255 255 0
-5.599999 44.817394 -5.176497 0.594507 0.937499 255 255 0
-5.599999 44.817394 -3.401404 0.594507 0.875102 255 255 0
5.599999 44.817394 -5.176497 0.594023 0.937499 255 255 0
5.599999 44.817394 -3.401404 0.594023 0.875102 255 255 0
7.379940 42.015205 -3.405498 0.623908 0.875246 255 255 0
7.444946 42.057854 -5.176497 0.625000 0.937499 255 255 0
-7.354934 42.015205 -3.405498 0.624124 0.875246 255 255 0
-7.406870 42.057854 -5.176497 0.624999 0.937499 255 255 0
-10.053056 44.159943 4.441662 0.084205 0.500000 255 255 0
-13.778854 44.092800 2.739409 0.493940 0.766765 255 255 0
-4.939470 15.238564 6.089125 0.707135 0.661000 255 255 0
-5.572439 20.381708 6.725233 0.826157 0.645413 255 255 0
-5.599999 44.817394 5.169500 0.595174 0.875000 255 255 0
-5.599999 44.817394 3.401407 0.595174 0.937397 255 255 0
5.599999 44.817394 5.169500 0.594852 0.875000 255 255 0
5.599999 44.817394 3.401407 0.594852 0.937397 255 255 0
7.379940 42.015205 5.169500 0.624999 0.875000 255 255 0
7.379940 42.015205 3.405500 0.624999 0.937253 255 255 0
-7.354934 42.015205 5.169500 0.624999 0.875000 255 255 0
-7.354934 42.015205 3.405500 0.624999 0.937253 255 255 0
5.551651 20.336422 6.721684 0.234350 0.250000 255 255 0
-5.572439 20.381708 6.725233 0.235848 0.250000 255 255 0
9.510571 2.000000 -3.090172 0.375000 0.688440 255 255 0
9.510571 0.000000 -3.090172 0.375000 0.312500 255 255 0
8.090176 2.000000 -5.877856 0.387500 0.688440 255 255 0
8.090176 0.000000 -5.877856 0.387500 0.312500 255 255 0
5.877856 0.000000 -8.090175 0.400000 0.312500 255 255 0
5.877856 2.000000 -8.090175 0.400000 0.688440 255 255 0
3.090172 0.000000 -9.510571 0.412500 0.312500 255 255 0
3.090172 2.000000 -9.510571 0.412500 0.688440 255 255 0
0.000000 0.000000 -10.000004 0.425000 0.312500 255 255 0
0.000000 2.000000 -10.000004 0.425000 0.688440 255 255 0
-3.090172 0.000000 -9.510570 0.437500 0.312500 255 255 0
-3.090172 2.000000 -9.510570 0.437500 0.688440 255 255 0
-5.877855 2.000000 -8.090172 0.450000 0.688440 255 255 0
-5.877855 0.000000 -8.090172 0.450000 0.312500 255 255 0
-8.090172 2.000000 -5.877854 0.462500 0.688440 255 255 0
-8.090172 0.000000 -5.877854 0.462500 0.312500 255 255 0
-9.510568 2.000000 -3.090171 0.475000 0.688440 255 255 0
-9.510568 0.000000 -3.090171 0.475000 0.312500 255 255 0
-10.000002 2.000000 0.000000 0.487500 0.688440 255 255 0
-10.000002 0.000000 0.000000 0.487500 0.312500 255 255 0
-9.510568 2.000000 3.090171 0.500000 0.688440 255 255 0
-9.510568 -0.000000 3.090171 0.500000 0.312500 255 255 0
-8.090172 2.000000 5.877853 0.512500 0.688440 255 255 0
-8.090172 -0.000000 5.877853 0.512500 0.312500 255 255 0
-5.877853 2.000000 8.090171 0.525000 0.688440 255 255 0
-5.877853 -0.000000 8.090171 0.525000 0.312500 255 255 0
-3.090171 1.999999 19.755281 0.537500 0.688440 255 255 0
-3.090171 -0.000001 19.755281 0.537500 0.312500 255 255 0
0.000000 1.999999 20.244717 0.550000 0.688440 255 255 0
0.000000 -0.000001 20.244717 0.550000 0.312500 255 255 0
3.090170 1.999999 19.755281 0.562500 0.688440 255 255 0
3.090170 -0.000001 19.755281 0.562500 0.312500 255 255 0
5.877852 2.000000 8.090171 0.575000 0.688440 255 255 0
5.877852 -0.000000 8.090171 0.575000 0.312500 255 255 0
8.090169 2.000000 5.877853 0.587500 0.688440 255 255 0
8.090169 -0.000000 5.877853 0.587500 0.312500 255 255 0
9.510566 2.000000 3.090170 0.600000 0.688440 255 255 0
9.510566 -0.000000 3.090170 0.600000 0.312500 255 255 0
10.000000 2.000000 0.000000 0.612500 0.688440 255 255 0
10.000000 0.000000 0.000000 0.612500 0.312500 255 255 0
9.510571 2.000000 -3.090172 0.625000 0.688440 255 255 0
9.510571 0.000000 -3.090172 0.625000 0.312500 255 255 0
8.090176 0.000000 -5.877856 0.626409 0.064408 255 255 0
9.510571 0.000000 -3.090172 0.648603 0.107966 255 255 0
0.000000 0.000000 0.000000 0.500000 0.150000 255 255 0
5.877856 0.000000 -8.090175 0.591842 0.029841 255 255 0
3.090172 0.000000 -9.510571 0.548284 0.007647 255 255 0
0.000000 0.000000 -10.000004 0.500000 -0.000000 255 255 0
-3.090172 0.000000 -9.510570 0.451716 0.007647 255 255 0
-5.877855 0.000000 -8.090172 0.408159 0.029841 255 255 0
-8.090172 0.000000 -5.877854 0.373591 0.064409 255 255 0
-9.510568 0.000000 -3.090171 0.351397 0.107966 255 255 0
-10.000002 0.000000 0.000000 0.343750 0.156250 255 255 0
-9.510568 -0.000000 3.090171 0.351397 0.204534 255 255 0
-8.090172 -0.000000 5.877853 0.373591 0.248091 255 255 0
-5.877853 -0.000000 8.090171 0.408159 0.282659 255 255 0
-3.090171 -0.000001 19.755281 0.451716 0.304853 255 255 0
0.000000 -0.000001 20.244717 0.500000 0.312500 255 255 0
3.090170 -0.000001 19.755281 0.548284 0.304853 255 255 0
5.877852 -0.000000 8.090171 0.591841 0.282659 255 255 0
8.090169 -0.000000 5.877853 0.626409 0.248091 255 255 0
9.510566 -0.000000 3.090170 0.648603 0.204534 255 255 0
10.000000 0.000000 0.000000 0.656250 0.156250 255 255 0
9.510571 2.000000 -3.090172 0.648603 0.892034 255 255 0
8.090176 2.000000 -5.877856 0.626409 0.935591 255 255 0
0.000000 2.000000 0.000000 0.500000 0.837500 255 255 0
5.877856 2.000000 -8.090175 0.591841 0.970159 255 255 0
3.090172 2.000000 -9.510571 0.548284 0.992353 255 255 0
0.000000 2.000000 -10.000004 0.500000 1.000000 255 255 0
-3.090172 2.000000 -9.510570 0.451716 0.992353 255 255 0
-5.877855 2.000000 -8.090172 0.408159 0.970159 255 255 0
-8.090172 2.000000 -5.877854 0.373591 0.935591 255 255 0
-9.510568 2.000000 -3.090171 0.351397 0.892034 255 255 0
-10.000002 2.000000 0.000000 0.343750 0.843750 255 255 0
-9.510568 2.000000 3.090171 0.351397 0.795466 255 255 0
-8.090172 2.000000 5.877853 0.373591 0.751909 255 255 0
-5.877853 2.000000 8.090171 0.408159 0.717341 255 255 0
-3.090171 1.999999 19.755281 0.451716 0.695147 255 255 0
0.000000 1.999999 20.244717 0.500000 0.687500 255 255 0
3.090170 1.999999 19.755281 0.548284 0.695147 255 255 0
5.877852 2.000000 8.090171 0.591842 0.717341 255 255 0
8.090169 2.000000 5.877853 0.626409 0.751908 255 255 0
9.510566 2.000000 3.090170 0.648603 0.795466 255 255 0
10.000000 2.000000 0.000000 0.656250 0.843750 255 255 0
3 0 1 2
3 2 3 0
3 4 5 1
3 4 1 0
3 6 7 8
3 9 10 11
3 12 10 9
3 13 10 12
3 13 14 10
3 7 14 13
3 7 6 14
3 15 16 17
3 18 19 20
3 18 21 19
3 18 22 21
3 23 22 18
3 15 23 16
3 15 22 23
3 24 25 26
3 25 27 28
3 24 27 25
3 27 29 30
3 29 27 24
3 31 32 33
3 32 34 35
3 31 34 32
3 36 31 37
3 36 34 31
3 38 39 40
3 41 42 43
3 43 44 41
3 45 46 47
3 46 45 48
3 49 50 51
3 50 49 52
3 53 54 55
3 54 53 56
3 57 58 59
3 57 60 58
3 61 62 63
3 61 64 62
3 65 66 67
3 66 65 68
3 69 63 70
3 69 61 63
3 67 71 72
3 71 67 66
3 73 74 75
3 74 73 76
3 74 77 78
3 74 76 77
3 79 42 80
3 79 43 42
3 81 82 83
3 82 81 84
3 85 84 81
3 84 85 86
3 72 87 88
3 87 72 71
3 89 70 90
3 89 69 70
3 91 92 93
3 91 94 92
3 91 95 96
3 95 91 93
3 97 98 99
3 97 100 98
3 101 97 102
3 97 101 100
3 103 104 105
3 104 103 106
3 107 105 108
3 107 103 105
3 109 2 110
3 2 109 3
3 111 112 113
3 112 111 114
3 112 115 116
3 112 114 115
3 117 118 119
3 117 120 118
3 121 117 38
3 117 121 120
3 120 122 118
3 120 123 122
3 124 120 121
3 120 124 123
3 125 114 111
3 114 125 126
3 114 127 115
3 114 126 127
3 128 129 130
3 129 128 131
3 132 131 133
3 131 132 129
3 134 135 136
3 134 137 135
3 138 134 139
3 134 138 137
3 140 116 141
3 142 143 49
3 59 58 144
3 53 55 145
3 146 147 148
3 149 70 63
3 150 151 152
3 72 153 67
3 154 155 156
3 154 157 155
3 158 159 160
3 161 162 163
3 164 165 166
3 165 164 167
3 168 154 169
3 154 168 157
3 165 170 171
3 165 167 170
3 172 173 174
3 173 172 175
3 176 177 178
3 177 176 179
3 180 181 182
3 181 180 183
3 176 184 179
3 184 176 185
3 186 181 183
3 181 186 187
3 175 188 173
3 188 175 189
3 190 191 192
3 193 194 195
3 196 197 198
3 196 199 197
3 200 199 196
3 29 201 30
3 200 202 199
3 200 203 202
3 203 201 29
3 203 200 201
3 204 205 206
3 207 205 204
3 207 208 205
3 209 36 37
3 210 208 207
3 210 209 208
3 209 211 36
3 209 210 211
3 212 213 214
3 215 216 217
3 214 213 218
3 216 219 217
3 212 220 213
3 215 217 221
3 193 222 223
3 222 193 224
3 225 226 227
3 226 225 228
3 229 230 231
3 229 232 230
3 233 234 235
3 234 233 236
3 237 238 239
3 237 240 238
3 241 242 243
3 244 245 246
3 244 246 247
3 40 248 249
3 250 251 12
3 250 12 9
3 251 250 252
3 253 21 254
3 253 19 21
3 254 255 253
3 256 257 258
3 256 259 257
3 260 261 262
3 252 263 264
3 250 263 252
3 263 250 9
3 214 218 265
3 212 266 220
3 267 268 269
3 270 268 267
3 271 272 273
3 274 255 275
3 274 253 255
3 253 274 19
3 276 277 224
3 277 276 278
3 193 276 224
3 193 279 276
3 225 280 281
3 225 227 280
3 282 280 227
3 280 282 283
3 195 279 193
3 279 195 284
3 281 285 225
3 285 281 286
3 287 288 289
3 225 285 290
3 291 292 293
3 291 294 292
3 295 296 297
3 296 295 298
3 299 300 301
3 300 299 302
3 303 304 305
3 304 303 306
3 307 308 309
3 308 198 197
3 310 311 312
3 198 311 310
3 198 307 311
3 198 308 307
3 313 314 315
3 206 313 204
3 316 317 318
3 316 206 317
3 206 314 313
3 206 316 314
3 299 293 302
3 293 299 291
3 319 292 294
3 292 319 320
3 295 321 298
3 295 322 321
3 304 297 296
3 304 306 297
3 319 323 320
3 319 324 323
3 321 325 326
3 321 322 325
3 327 96 328
3 328 96 95
3 92 94 329
3 329 94 330
3 331 99 332
3 332 99 98
3 101 102 333
3 333 102 334
3 330 335 329
3 331 332 336
3 327 328 337
3 334 338 333
3 113 339 340
3 113 340 111
3 116 115 141
3 341 110 342
3 341 109 110
3 343 45 344
3 345 81 83
3 85 345 346
3 345 85 81
3 347 45 47
3 347 344 45
3 347 348 344
3 349 52 49
3 349 49 143
3 349 143 350
3 10 351 352
3 351 10 14
3 11 10 353
3 18 354 23
3 354 18 355
3 20 356 18
3 357 7 358
3 7 13 358
3 15 359 360
3 15 360 22
3 119 241 361
3 119 118 241
3 38 40 121
3 362 41 363
3 41 362 42
3 364 365 366
3 367 368 262
3 367 369 368
3 364 370 365
3 369 370 364
3 369 371 370
3 371 367 372
3 371 369 367
3 373 374 375
3 376 377 273
3 378 377 376
3 379 374 373
3 379 378 374
3 377 380 381
3 378 380 377
3 378 379 380
3 382 357 383
3 382 7 357
3 364 384 385
3 384 364 386
3 387 374 388
3 374 387 389
3 390 391 359
3 370 392 393
3 392 370 371
3 352 353 10
3 14 6 351
3 371 372 392
3 393 365 370
3 379 394 380
3 394 379 395
3 355 18 356
3 23 354 16
3 380 394 381
3 395 379 373
3 385 369 364
3 364 396 386
3 364 366 396
3 7 397 8
3 397 7 382
3 398 383 357
3 262 399 367
3 262 261 399
3 9 400 263
3 9 11 400
3 288 401 289
3 288 402 401
3 388 374 378
3 362 80 42
3 390 359 15
3 374 403 375
3 374 389 403
3 404 15 17
3 15 404 390
3 405 359 391
3 406 121 40
3 124 121 406
3 122 407 118
3 241 118 407
3 408 141 115
3 408 115 127
3 125 111 409
3 340 409 111
3 216 410 219
3 273 411 271
3 273 377 411
3 412 132 133
3 412 413 132
3 414 130 415
3 414 128 130
3 414 416 417
3 416 414 415
3 418 412 419
3 412 418 413
3 215 221 420
3 19 421 20
3 19 274 421
3 192 422 423
3 192 191 422
3 424 139 425
3 424 138 139
3 426 136 135
3 426 427 136
3 428 427 426
3 428 429 427
3 430 425 431
3 430 424 425
3 59 144 432
3 145 55 433
3 434 435 436
3 435 437 436
3 438 439 437
3 437 439 436
3 440 441 438
3 438 441 439
3 442 443 440
3 440 443 441
3 444 445 442
3 442 445 443
3 446 444 447
3 444 446 445
3 448 447 449
3 447 448 446
3 450 449 451
3 449 450 448
3 452 451 453
3 451 452 450
3 454 453 455
3 453 454 452
3 456 455 457
3 455 456 454
3 458 456 457
3 458 457 459
3 460 459 461
3 459 460 458
3 462 460 461
3 462 461 463
3 464 462 463
3 464 463 465
3 466 464 465
3 465 467 466
3 466 467 468
3 467 469 468
3 468 469 470
3 469 471 470
3 470 471 472
3 471 473 472
3 472 473 474
3 473 475 474
3 476 477 478
3 479 476 478
3 480 479 478
3 481 480 478
3 482 481 478
3 483 482 478
3 484 483 478
3 485 484 478
3 486 485 478
3 487 486 478
3 488 487 478
3 489 488 478
3 490 489 478
3 491 490 478
3 492 491 478
3 493 492 478
3 494 493 478
3 495 494 478
3 496 495 478
3 477 496 478
3 497 498 499
3 498 500 499
3 500 501 499
3 501 502 499
3 502 503 499
3 503 504 499
3 504 505 499
3 505 506 499
3 506 507 499
3 507 508 499
3 508 509 499
3 509 510 499
3 510 511 499
3 511 512 499
3 512 513 499
3 513 514 499
3 514 515 499
3 515 516 499
3 516 517 499
3 517 497 499
